<svg xmlns="http://www.w3.org/2000/svg" xmlns:xlink="http://www.w3.org/1999/xlink" version="1.1" class="marks" width="847" height="710" viewBox="0 0 847 710"><rect width="847" height="710" fill="#FFFFFF"/><g fill="none" stroke-miterlimit="10" transform="translate(81,78)"><g class="mark-group role-frame root" role="graphics-object" aria-roledescription="group mark container"><g transform="translate(0,0)"><path class="background" aria-hidden="true" d="M0.5,0.5h760v588h-760Z" stroke="#ddd"/><g><g class="mark-group role-axis" aria-hidden="true"><g transform="translate(0.5,588.5)"><path class="background" aria-hidden="true" d="M0,0h0v0h0Z" pointer-events="none"/><g><g class="mark-rule role-axis-grid" pointer-events="none"><line transform="translate(0,0)" x2="0" y2="-588" stroke="#E5E5E2" stroke-opacity="0.8" stroke-width="1" opacity="1"/><line transform="translate(63,0)" x2="0" y2="-588" stroke="#E5E5E2" stroke-opacity="0.8" stroke-width="1" opacity="1"/><line transform="translate(127,0)" x2="0" y2="-588" stroke="#E5E5E2" stroke-opacity="0.8" stroke-width="1" opacity="1"/><line transform="translate(190,0)" x2="0" y2="-588" stroke="#E5E5E2" stroke-opacity="0.8" stroke-width="1" opacity="1"/><line transform="translate(253,0)" x2="0" y2="-588" stroke="#E5E5E2" stroke-opacity="0.8" stroke-width="1" opacity="1"/><line transform="translate(317,0)" x2="0" y2="-588" stroke="#E5E5E2" stroke-opacity="0.8" stroke-width="1" opacity="1"/><line transform="translate(380,0)" x2="0" y2="-588" stroke="#E5E5E2" stroke-opacity="0.8" stroke-width="1" opacity="1"/><line transform="translate(443,0)" x2="0" y2="-588" stroke="#E5E5E2" stroke-opacity="0.8" stroke-width="1" opacity="1"/><line transform="translate(507,0)" x2="0" y2="-588" stroke="#E5E5E2" stroke-opacity="0.8" stroke-width="1" opacity="1"/><line transform="translate(570,0)" x2="0" y2="-588" stroke="#E5E5E2" stroke-opacity="0.8" stroke-width="1" opacity="1"/><line transform="translate(633,0)" x2="0" y2="-588" stroke="#E5E5E2" stroke-opacity="0.8" stroke-width="1" opacity="1"/><line transform="translate(697,0)" x2="0" y2="-588" stroke="#E5E5E2" stroke-opacity="0.8" stroke-width="1" opacity="1"/><line transform="translate(760,0)" x2="0" y2="-588" stroke="#E5E5E2" stroke-opacity="0.8" stroke-width="1" opacity="1"/></g></g><path class="foreground" aria-hidden="true" d="" pointer-events="none" display="none"/></g></g><g class="mark-group role-axis" role="graphics-symbol" aria-roledescription="axis" aria-label="X-axis titled 'Grand Slam finals' for a linear scale with values from −6 to 6"><g transform="translate(0.5,588.5)"><path class="background" aria-hidden="true" d="M0,0h0v0h0Z" pointer-events="none"/><g><g class="mark-rule role-axis-tick" pointer-events="none"><line transform="translate(0,0)" x2="0" y2="0" stroke="#888" stroke-width="1" opacity="1"/><line transform="translate(63,0)" x2="0" y2="0" stroke="#888" stroke-width="1" opacity="1"/><line transform="translate(127,0)" x2="0" y2="0" stroke="#888" stroke-width="1" opacity="1"/><line transform="translate(190,0)" x2="0" y2="0" stroke="#888" stroke-width="1" opacity="1"/><line transform="translate(253,0)" x2="0" y2="0" stroke="#888" stroke-width="1" opacity="1"/><line transform="translate(317,0)" x2="0" y2="0" stroke="#888" stroke-width="1" opacity="1"/><line transform="translate(380,0)" x2="0" y2="0" stroke="#888" stroke-width="1" opacity="1"/><line transform="translate(443,0)" x2="0" y2="0" stroke="#888" stroke-width="1" opacity="1"/><line transform="translate(507,0)" x2="0" y2="0" stroke="#888" stroke-width="1" opacity="1"/><line transform="translate(570,0)" x2="0" y2="0" stroke="#888" stroke-width="1" opacity="1"/><line transform="translate(633,0)" x2="0" y2="0" stroke="#888" stroke-width="1" opacity="1"/><line transform="translate(697,0)" x2="0" y2="0" stroke="#888" stroke-width="1" opacity="1"/><line transform="translate(760,0)" x2="0" y2="0" stroke="#888" stroke-width="1" opacity="1"/></g><g class="mark-text role-axis-label" pointer-events="none"><text text-anchor="start" transform="translate(0,10)" font-family="sans-serif" font-size="10px" fill="#000" opacity="1">6</text><text text-anchor="middle" transform="translate(63.33333333333333,10)" font-family="sans-serif" font-size="10px" fill="#000" opacity="1">5</text><text text-anchor="middle" transform="translate(126.66666666666666,10)" font-family="sans-serif" font-size="10px" fill="#000" opacity="1">4</text><text text-anchor="middle" transform="translate(190,10)" font-family="sans-serif" font-size="10px" fill="#000" opacity="1">3</text><text text-anchor="middle" transform="translate(253.33333333333331,10)" font-family="sans-serif" font-size="10px" fill="#000" opacity="1">2</text><text text-anchor="middle" transform="translate(316.6666666666667,10)" font-family="sans-serif" font-size="10px" fill="#000" opacity="1">1</text><text text-anchor="middle" transform="translate(380,10)" font-family="sans-serif" font-size="10px" fill="#000" opacity="1">0</text><text text-anchor="middle" transform="translate(443.33333333333337,10)" font-family="sans-serif" font-size="10px" fill="#000" opacity="1">1</text><text text-anchor="middle" transform="translate(506.66666666666663,10)" font-family="sans-serif" font-size="10px" fill="#000" opacity="1">2</text><text text-anchor="middle" transform="translate(570,10)" font-family="sans-serif" font-size="10px" fill="#000" opacity="1">3</text><text text-anchor="middle" transform="translate(633.3333333333334,10)" font-family="sans-serif" font-size="10px" fill="#000" opacity="1">4</text><text text-anchor="middle" transform="translate(696.6666666666666,10)" font-family="sans-serif" font-size="10px" fill="#000" opacity="1">5</text><text text-anchor="end" transform="translate(760,10)" font-family="sans-serif" font-size="10px" fill="#000" opacity="1">6</text></g><g class="mark-text role-axis-title" pointer-events="none"><text text-anchor="middle" transform="translate(380,37)" font-family="sans-serif" font-size="11px" font-weight="bold" fill="#000" opacity="1">Grand Slam finals</text></g></g><path class="foreground" aria-hidden="true" d="" pointer-events="none" display="none"/></g></g><g class="mark-group role-axis" role="graphics-symbol" aria-roledescription="axis" aria-label="Y-axis for a discrete scale with 14 values: Nadal R., Murray A., Federer R., Medvedev D., Tsitsipas S., ending with Tsonga J.W."><g transform="translate(0.5,0.5)"><path class="background" aria-hidden="true" d="M0,0h0v0h0Z" pointer-events="none"/><g><g class="mark-rule role-axis-tick" pointer-events="none"><line transform="translate(0,20)" x2="0" y2="0" stroke="#888" stroke-width="1" opacity="1"/><line transform="translate(0,62)" x2="0" y2="0" stroke="#888" stroke-width="1" opacity="1"/><line transform="translate(0,104)" x2="0" y2="0" stroke="#888" stroke-width="1" opacity="1"/><line transform="translate(0,146)" x2="0" y2="0" stroke="#888" stroke-width="1" opacity="1"/><line transform="translate(0,188)" x2="0" y2="0" stroke="#888" stroke-width="1" opacity="1"/><line transform="translate(0,230)" x2="0" y2="0" stroke="#888" stroke-width="1" opacity="1"/><line transform="translate(0,272)" x2="0" y2="0" stroke="#888" stroke-width="1" opacity="1"/><line transform="translate(0,314)" x2="0" y2="0" stroke="#888" stroke-width="1" opacity="1"/><line transform="translate(0,356)" x2="0" y2="0" stroke="#888" stroke-width="1" opacity="1"/><line transform="translate(0,398)" x2="0" y2="0" stroke="#888" stroke-width="1" opacity="1"/><line transform="translate(0,440)" x2="0" y2="0" stroke="#888" stroke-width="1" opacity="1"/><line transform="translate(0,482)" x2="0" y2="0" stroke="#888" stroke-width="1" opacity="1"/><line transform="translate(0,525)" x2="0" y2="0" stroke="#888" stroke-width="1" opacity="1"/><line transform="translate(0,566)" x2="0" y2="0" stroke="#888" stroke-width="1" opacity="1"/></g><g class="mark-text role-axis-label" pointer-events="none"><text text-anchor="end" transform="translate(-12,23.499999999999968)" font-family="sans-serif" font-size="10px" fill="#000" opacity="1">Nadal R.</text><text text-anchor="end" transform="translate(-12,65.49999999999997)" font-family="sans-serif" font-size="10px" fill="#000" opacity="1">Murray A.</text><text text-anchor="end" transform="translate(-12,107.49999999999997)" font-family="sans-serif" font-size="10px" fill="#000" opacity="1">Federer R.</text><text text-anchor="end" transform="translate(-12,149.49999999999997)" font-family="sans-serif" font-size="10px" fill="#000" opacity="1">Medvedev D.</text><text text-anchor="end" transform="translate(-12,191.49999999999997)" font-family="sans-serif" font-size="10px" fill="#000" opacity="1">Tsitsipas S.</text><text text-anchor="end" transform="translate(-12,233.49999999999997)" font-family="sans-serif" font-size="10px" fill="#000" opacity="1">Alcaraz C.</text><text text-anchor="end" transform="translate(-12,275.49999999999994)" font-family="sans-serif" font-size="10px" fill="#000" opacity="1">Wawrinka S.</text><text text-anchor="end" transform="translate(-12,317.49999999999994)" font-family="sans-serif" font-size="10px" fill="#000" opacity="1">Anderson K.</text><text text-anchor="end" transform="translate(-12,359.49999999999994)" font-family="sans-serif" font-size="10px" fill="#000" opacity="1">Berrettini M.</text><text text-anchor="end" transform="translate(-12,401.49999999999994)" font-family="sans-serif" font-size="10px" fill="#000" opacity="1">Del Potro J.M.</text><text text-anchor="end" transform="translate(-12,443.49999999999994)" font-family="sans-serif" font-size="10px" fill="#000" opacity="1">Kyrgios N.</text><text text-anchor="end" transform="translate(-12,485.49999999999994)" font-family="sans-serif" font-size="10px" fill="#000" opacity="1">Ruud C.</text><text text-anchor="end" transform="translate(-12,527.5)" font-family="sans-serif" font-size="10px" fill="#000" opacity="1">Thiem D.</text><text text-anchor="end" transform="translate(-12,569.4999999999999)" font-family="sans-serif" font-size="10px" fill="#000" opacity="1">Tsonga J.W.</text></g></g><path class="foreground" aria-hidden="true" d="" pointer-events="none" display="none"/></g></g><g class="mark-group role-scope" role="graphics-object" aria-roledescription="group mark container"><g transform="translate(63.33333333333333,9.999999999999968)"><path class="background" aria-hidden="true" d="M3,0L567,0C568.655745073482,0,570,1.344254926518,570,3L570,19C570,20.655745073482,568.655745073482,22,567,22L3,22C1.344254926518,22,0,20.655745073482,0,19L0,3C0,1.344254926518,1.344254926518,0,3,0Z"/><g clip-path="url(#clip1)"><g class="mark-group role-scope" role="graphics-object" aria-roledescription="group mark container"><g transform="translate(-63.33333333333333,0)"><path class="background" aria-hidden="true" d="M0,0h0v22h0Z"/><g><g class="mark-rect role-mark layer_0_marks" role="graphics-object" aria-roledescription="rect mark container"><path aria-label="Grand Slam finals: −5; Opponent: Nadal R.; Result: Djokovic lost; Finals: 5; Finals played: 9; Djokovic record: 4–5" role="graphics-symbol" aria-roledescription="bar" d="M63.33333333333333,0h316.6666666666667v22h-316.6666666666667Z" fill="#B9BFBB"/><path aria-label="Grand Slam finals: 4; Opponent: Nadal R.; Result: Djokovic won; Finals: 4; Finals played: 9; Djokovic record: 4–5" role="graphics-symbol" aria-roledescription="bar" d="M380,0h253.33333333333337v22h-253.33333333333337Z" fill="#315E52"/></g></g><path class="foreground" aria-hidden="true" d="" display="none"/></g></g></g><path class="foreground" aria-hidden="true" d="" display="none"/></g><g transform="translate(253.33333333333331,51.99999999999997)"><path class="background" aria-hidden="true" d="M3,0L440.3333333333333,0C441.98907840681534,0,443.3333333333333,1.344254926518,443.3333333333333,3L443.3333333333333,19C443.3333333333333,20.655745073482,441.98907840681534,22,440.3333333333333,22L3,22C1.344254926518,22,0,20.655745073482,0,19L0,3C0,1.344254926518,1.344254926518,0,3,0Z"/><g clip-path="url(#clip2)"><g class="mark-group role-scope" role="graphics-object" aria-roledescription="group mark container"><g transform="translate(-253.33333333333331,0)"><path class="background" aria-hidden="true" d="M0,0h0v22h0Z"/><g><g class="mark-rect role-mark layer_0_marks" role="graphics-object" aria-roledescription="rect mark container"><path aria-label="Grand Slam finals: −2; Opponent: Murray A.; Result: Djokovic lost; Finals: 2; Finals played: 7; Djokovic record: 5–2" role="graphics-symbol" aria-roledescription="bar" d="M253.33333333333331,0h126.66666666666669v22h-126.66666666666669Z" fill="#B9BFBB"/><path aria-label="Grand Slam finals: 5; Opponent: Murray A.; Result: Djokovic won; Finals: 5; Finals played: 7; Djokovic record: 5–2" role="graphics-symbol" aria-roledescription="bar" d="M380,0h316.66666666666663v22h-316.66666666666663Z" fill="#315E52"/></g></g><path class="foreground" aria-hidden="true" d="" display="none"/></g></g></g><path class="foreground" aria-hidden="true" d="" display="none"/></g><g transform="translate(316.6666666666667,93.99999999999997)"><path class="background" aria-hidden="true" d="M3,0L313.6666666666667,0C315.3224117401487,0,316.6666666666667,1.344254926518,316.6666666666667,3L316.6666666666667,19C316.6666666666667,20.655745073482,315.3224117401487,22,313.6666666666667,22L3,22C1.344254926518,22,0,20.655745073482,0,19L0,3C0,1.344254926518,1.344254926518,0,3,0Z"/><g clip-path="url(#clip3)"><g class="mark-group role-scope" role="graphics-object" aria-roledescription="group mark container"><g transform="translate(-316.6666666666667,0)"><path class="background" aria-hidden="true" d="M0,0h0v22h0Z"/><g><g class="mark-rect role-mark layer_0_marks" role="graphics-object" aria-roledescription="rect mark container"><path aria-label="Grand Slam finals: −1; Opponent: Federer R.; Result: Djokovic lost; Finals: 1; Finals played: 5; Djokovic record: 4–1" role="graphics-symbol" aria-roledescription="bar" d="M316.6666666666667,0h63.333333333333314v22h-63.333333333333314Z" fill="#B9BFBB"/><path aria-label="Grand Slam finals: 4; Opponent: Federer R.; Result: Djokovic won; Finals: 4; Finals played: 5; Djokovic record: 4–1" role="graphics-symbol" aria-roledescription="bar" d="M380,0h253.33333333333337v22h-253.33333333333337Z" fill="#315E52"/></g></g><path class="foreground" aria-hidden="true" d="" display="none"/></g></g></g><path class="foreground" aria-hidden="true" d="" display="none"/></g><g transform="translate(316.6666666666667,135.99999999999997)"><path class="background" aria-hidden="true" d="M3,0L186.99999999999994,0C188.65574507348194,0,189.99999999999994,1.344254926518,189.99999999999994,3L189.99999999999994,19C189.99999999999994,20.655745073482,188.65574507348194,22,186.99999999999994,22L3,22C1.344254926518,22,0,20.655745073482,0,19L0,3C0,1.344254926518,1.344254926518,0,3,0Z"/><g clip-path="url(#clip4)"><g class="mark-group role-scope" role="graphics-object" aria-roledescription="group mark container"><g transform="translate(-316.6666666666667,0)"><path class="background" aria-hidden="true" d="M0,0h0v22h0Z"/><g><g class="mark-rect role-mark layer_0_marks" role="graphics-object" aria-roledescription="rect mark container"><path aria-label="Grand Slam finals: −1; Opponent: Medvedev D.; Result: Djokovic lost; Finals: 1; Finals played: 3; Djokovic record: 2–1" role="graphics-symbol" aria-roledescription="bar" d="M316.6666666666667,0h63.333333333333314v22h-63.333333333333314Z" fill="#B9BFBB"/><path aria-label="Grand Slam finals: 2; Opponent: Medvedev D.; Result: Djokovic won; Finals: 2; Finals played: 3; Djokovic record: 2–1" role="graphics-symbol" aria-roledescription="bar" d="M380,0h126.66666666666663v22h-126.66666666666663Z" fill="#315E52"/></g></g><path class="foreground" aria-hidden="true" d="" display="none"/></g></g></g><path class="foreground" aria-hidden="true" d="" display="none"/></g><g transform="translate(253.33333333333331,219.99999999999997)"><path class="background" aria-hidden="true" d="M3,0L123.66666666666669,0C125.32241174014868,0,126.66666666666669,1.344254926518,126.66666666666669,3L126.66666666666669,19C126.66666666666669,20.655745073482,125.32241174014868,22,123.66666666666669,22L3,22C1.344254926518,22,0,20.655745073482,0,19L0,3C0,1.344254926518,1.344254926518,0,3,0Z"/><g clip-path="url(#clip5)"><g class="mark-group role-scope" role="graphics-object" aria-roledescription="group mark container"><g transform="translate(-253.33333333333331,0)"><path class="background" aria-hidden="true" d="M0,0h0v22h0Z"/><g><g class="mark-rect role-mark layer_0_marks" role="graphics-object" aria-roledescription="rect mark container"><path aria-label="Grand Slam finals: −2; Opponent: Alcaraz C.; Result: Djokovic lost; Finals: 2; Finals played: 2; Djokovic record: 0–2" role="graphics-symbol" aria-roledescription="bar" d="M253.33333333333331,0h126.66666666666669v22h-126.66666666666669Z" fill="#B9BFBB"/></g></g><path class="foreground" aria-hidden="true" d="" display="none"/></g></g></g><path class="foreground" aria-hidden="true" d="" display="none"/></g><g transform="translate(253.33333333333331,261.99999999999994)"><path class="background" aria-hidden="true" d="M3,0L123.66666666666669,0C125.32241174014868,0,126.66666666666669,1.344254926518,126.66666666666669,3L126.66666666666669,19C126.66666666666669,20.655745073482,125.32241174014868,22,123.66666666666669,22L3,22C1.344254926518,22,0,20.655745073482,0,19L0,3C0,1.344254926518,1.344254926518,0,3,0Z"/><g clip-path="url(#clip6)"><g class="mark-group role-scope" role="graphics-object" aria-roledescription="group mark container"><g transform="translate(-253.33333333333331,0)"><path class="background" aria-hidden="true" d="M0,0h0v22h0Z"/><g><g class="mark-rect role-mark layer_0_marks" role="graphics-object" aria-roledescription="rect mark container"><path aria-label="Grand Slam finals: −2; Opponent: Wawrinka S.; Result: Djokovic lost; Finals: 2; Finals played: 2; Djokovic record: 0–2" role="graphics-symbol" aria-roledescription="bar" d="M253.33333333333331,0h126.66666666666669v22h-126.66666666666669Z" fill="#B9BFBB"/></g></g><path class="foreground" aria-hidden="true" d="" display="none"/></g></g></g><path class="foreground" aria-hidden="true" d="" display="none"/></g><g transform="translate(380,177.99999999999997)"><path class="background" aria-hidden="true" d="M3,0L123.66666666666663,0C125.32241174014862,0,126.66666666666663,1.344254926518,126.66666666666663,3L126.66666666666663,19C126.66666666666663,20.655745073482,125.32241174014862,22,123.66666666666663,22L3,22C1.344254926518,22,0,20.655745073482,0,19L0,3C0,1.344254926518,1.344254926518,0,3,0Z"/><g clip-path="url(#clip7)"><g class="mark-group role-scope" role="graphics-object" aria-roledescription="group mark container"><g transform="translate(-380,0)"><path class="background" aria-hidden="true" d="M0,0h0v22h0Z"/><g><g class="mark-rect role-mark layer_0_marks" role="graphics-object" aria-roledescription="rect mark container"><path aria-label="Grand Slam finals: 2; Opponent: Tsitsipas S.; Result: Djokovic won; Finals: 2; Finals played: 2; Djokovic record: 2–0" role="graphics-symbol" aria-roledescription="bar" d="M380,0h126.66666666666663v22h-126.66666666666663Z" fill="#315E52"/></g></g><path class="foreground" aria-hidden="true" d="" display="none"/></g></g></g><path class="foreground" aria-hidden="true" d="" display="none"/></g><g transform="translate(380,303.99999999999994)"><path class="background" aria-hidden="true" d="M3,0L60.33333333333337,0C61.98907840681537,0,63.33333333333337,1.344254926518,63.33333333333337,3L63.33333333333337,19C63.33333333333337,20.655745073482,61.98907840681537,22,60.33333333333337,22L3,22C1.344254926518,22,0,20.655745073482,0,19L0,3C0,1.344254926518,1.344254926518,0,3,0Z"/><g clip-path="url(#clip8)"><g class="mark-group role-scope" role="graphics-object" aria-roledescription="group mark container"><g transform="translate(-380,0)"><path class="background" aria-hidden="true" d="M0,0h0v22h0Z"/><g><g class="mark-rect role-mark layer_0_marks" role="graphics-object" aria-roledescription="rect mark container"><path aria-label="Grand Slam finals: 1; Opponent: Anderson K.; Result: Djokovic won; Finals: 1; Finals played: 1; Djokovic record: 1–0" role="graphics-symbol" aria-roledescription="bar" d="M380,0h63.33333333333337v22h-63.33333333333337Z" fill="#315E52"/></g></g><path class="foreground" aria-hidden="true" d="" display="none"/></g></g></g><path class="foreground" aria-hidden="true" d="" display="none"/></g><g transform="translate(380,345.99999999999994)"><path class="background" aria-hidden="true" d="M3,0L60.33333333333337,0C61.98907840681537,0,63.33333333333337,1.344254926518,63.33333333333337,3L63.33333333333337,19C63.33333333333337,20.655745073482,61.98907840681537,22,60.33333333333337,22L3,22C1.344254926518,22,0,20.655745073482,0,19L0,3C0,1.344254926518,1.344254926518,0,3,0Z"/><g clip-path="url(#clip9)"><g class="mark-group role-scope" role="graphics-object" aria-roledescription="group mark container"><g transform="translate(-380,0)"><path class="background" aria-hidden="true" d="M0,0h0v22h0Z"/><g><g class="mark-rect role-mark layer_0_marks" role="graphics-object" aria-roledescription="rect mark container"><path aria-label="Grand Slam finals: 1; Opponent: Berrettini M.; Result: Djokovic won; Finals: 1; Finals played: 1; Djokovic record: 1–0" role="graphics-symbol" aria-roledescription="bar" d="M380,0h63.33333333333337v22h-63.33333333333337Z" fill="#315E52"/></g></g><path class="foreground" aria-hidden="true" d="" display="none"/></g></g></g><path class="foreground" aria-hidden="true" d="" display="none"/></g><g transform="translate(380,387.99999999999994)"><path class="background" aria-hidden="true" d="M3,0L60.33333333333337,0C61.98907840681537,0,63.33333333333337,1.344254926518,63.33333333333337,3L63.33333333333337,19C63.33333333333337,20.655745073482,61.98907840681537,22,60.33333333333337,22L3,22C1.344254926518,22,0,20.655745073482,0,19L0,3C0,1.344254926518,1.344254926518,0,3,0Z"/><g clip-path="url(#clip10)"><g class="mark-group role-scope" role="graphics-object" aria-roledescription="group mark container"><g transform="translate(-380,0)"><path class="background" aria-hidden="true" d="M0,0h0v22h0Z"/><g><g class="mark-rect role-mark layer_0_marks" role="graphics-object" aria-roledescription="rect mark container"><path aria-label="Grand Slam finals: 1; Opponent: Del Potro J.M.; Result: Djokovic won; Finals: 1; Finals played: 1; Djokovic record: 1–0" role="graphics-symbol" aria-roledescription="bar" d="M380,0h63.33333333333337v22h-63.33333333333337Z" fill="#315E52"/></g></g><path class="foreground" aria-hidden="true" d="" display="none"/></g></g></g><path class="foreground" aria-hidden="true" d="" display="none"/></g><g transform="translate(380,429.99999999999994)"><path class="background" aria-hidden="true" d="M3,0L60.33333333333337,0C61.98907840681537,0,63.33333333333337,1.344254926518,63.33333333333337,3L63.33333333333337,19C63.33333333333337,20.655745073482,61.98907840681537,22,60.33333333333337,22L3,22C1.344254926518,22,0,20.655745073482,0,19L0,3C0,1.344254926518,1.344254926518,0,3,0Z"/><g clip-path="url(#clip11)"><g class="mark-group role-scope" role="graphics-object" aria-roledescription="group mark container"><g transform="translate(-380,0)"><path class="background" aria-hidden="true" d="M0,0h0v22h0Z"/><g><g class="mark-rect role-mark layer_0_marks" role="graphics-object" aria-roledescription="rect mark container"><path aria-label="Grand Slam finals: 1; Opponent: Kyrgios N.; Result: Djokovic won; Finals: 1; Finals played: 1; Djokovic record: 1–0" role="graphics-symbol" aria-roledescription="bar" d="M380,0h63.33333333333337v22h-63.33333333333337Z" fill="#315E52"/></g></g><path class="foreground" aria-hidden="true" d="" display="none"/></g></g></g><path class="foreground" aria-hidden="true" d="" display="none"/></g><g transform="translate(380,471.99999999999994)"><path class="background" aria-hidden="true" d="M3,0L60.33333333333337,0C61.98907840681537,0,63.33333333333337,1.344254926518,63.33333333333337,3L63.33333333333337,19C63.33333333333337,20.655745073482,61.98907840681537,22,60.33333333333337,22L3,22C1.344254926518,22,0,20.655745073482,0,19L0,3C0,1.344254926518,1.344254926518,0,3,0Z"/><g clip-path="url(#clip12)"><g class="mark-group role-scope" role="graphics-object" aria-roledescription="group mark container"><g transform="translate(-380,0)"><path class="background" aria-hidden="true" d="M0,0h0v22h0Z"/><g><g class="mark-rect role-mark layer_0_marks" role="graphics-object" aria-roledescription="rect mark container"><path aria-label="Grand Slam finals: 1; Opponent: Ruud C.; Result: Djokovic won; Finals: 1; Finals played: 1; Djokovic record: 1–0" role="graphics-symbol" aria-roledescription="bar" d="M380,0h63.33333333333337v22h-63.33333333333337Z" fill="#315E52"/></g></g><path class="foreground" aria-hidden="true" d="" display="none"/></g></g></g><path class="foreground" aria-hidden="true" d="" display="none"/></g><g transform="translate(380,514)"><path class="background" aria-hidden="true" d="M3,0L60.33333333333337,0C61.98907840681537,0,63.33333333333337,1.344254926518,63.33333333333337,3L63.33333333333337,19C63.33333333333337,20.655745073482,61.98907840681537,22,60.33333333333337,22L3,22C1.344254926518,22,0,20.655745073482,0,19L0,3C0,1.344254926518,1.344254926518,0,3,0Z"/><g clip-path="url(#clip13)"><g class="mark-group role-scope" role="graphics-object" aria-roledescription="group mark container"><g transform="translate(-380,0)"><path class="background" aria-hidden="true" d="M0,0h0v22h0Z"/><g><g class="mark-rect role-mark layer_0_marks" role="graphics-object" aria-roledescription="rect mark container"><path aria-label="Grand Slam finals: 1; Opponent: Thiem D.; Result: Djokovic won; Finals: 1; Finals played: 1; Djokovic record: 1–0" role="graphics-symbol" aria-roledescription="bar" d="M380,0h63.33333333333337v22h-63.33333333333337Z" fill="#315E52"/></g></g><path class="foreground" aria-hidden="true" d="" display="none"/></g></g></g><path class="foreground" aria-hidden="true" d="" display="none"/></g><g transform="translate(380,555.9999999999999)"><path class="background" aria-hidden="true" d="M3,0L60.33333333333337,0C61.98907840681537,0,63.33333333333337,1.344254926518,63.33333333333337,3L63.33333333333337,19C63.33333333333337,20.655745073482,61.98907840681537,22,60.33333333333337,22L3,22C1.344254926518,22,0,20.655745073482,0,19L0,3C0,1.344254926518,1.344254926518,0,3,0Z"/><g clip-path="url(#clip14)"><g class="mark-group role-scope" role="graphics-object" aria-roledescription="group mark container"><g transform="translate(-380,0)"><path class="background" aria-hidden="true" d="M0,0h0v22h0Z"/><g><g class="mark-rect role-mark layer_0_marks" role="graphics-object" aria-roledescription="rect mark container"><path aria-label="Grand Slam finals: 1; Opponent: Tsonga J.W.; Result: Djokovic won; Finals: 1; Finals played: 1; Djokovic record: 1–0" role="graphics-symbol" aria-roledescription="bar" d="M380,0h63.33333333333337v22h-63.33333333333337Z" fill="#315E52"/></g></g><path class="foreground" aria-hidden="true" d="" display="none"/></g></g></g><path class="foreground" aria-hidden="true" d="" display="none"/></g></g><g class="mark-rule role-mark layer_1_marks" role="graphics-object" aria-roledescription="rule mark container"><line aria-label="x: 0" role="graphics-symbol" aria-roledescription="rule mark" transform="translate(380,0)" x2="0" y2="588" stroke="#8F9692" stroke-width="1.2"/></g><g class="mark-text role-mark layer_2_marks" role="graphics-object" aria-roledescription="text mark container"><text aria-label="Plot_Value: 4; Opponent: Nadal R.; Count: 4" role="graphics-symbol" aria-roledescription="text mark" text-anchor="start" transform="translate(640.3333333333334,24.999999999999968)" font-family="sans-serif" font-size="12px" font-weight="bold" fill="#292929">4</text><text aria-label="Plot_Value: 5; Opponent: Murray A.; Count: 5" role="graphics-symbol" aria-roledescription="text mark" text-anchor="start" transform="translate(703.6666666666666,66.99999999999997)" font-family="sans-serif" font-size="12px" font-weight="bold" fill="#292929">5</text><text aria-label="Plot_Value: 4; Opponent: Federer R.; Count: 4" role="graphics-symbol" aria-roledescription="text mark" text-anchor="start" transform="translate(640.3333333333334,108.99999999999997)" font-family="sans-serif" font-size="12px" font-weight="bold" fill="#292929">4</text><text aria-label="Plot_Value: 2; Opponent: Medvedev D.; Count: 2" role="graphics-symbol" aria-roledescription="text mark" text-anchor="start" transform="translate(513.6666666666666,150.99999999999997)" font-family="sans-serif" font-size="12px" font-weight="bold" fill="#292929">2</text><text aria-label="Plot_Value: 2; Opponent: Tsitsipas S.; Count: 2" role="graphics-symbol" aria-roledescription="text mark" text-anchor="start" transform="translate(513.6666666666666,192.99999999999997)" font-family="sans-serif" font-size="12px" font-weight="bold" fill="#292929">2</text><text aria-label="Plot_Value: 1; Opponent: Anderson K.; Count: 1" role="graphics-symbol" aria-roledescription="text mark" text-anchor="start" transform="translate(450.33333333333337,318.99999999999994)" font-family="sans-serif" font-size="12px" font-weight="bold" fill="#292929">1</text><text aria-label="Plot_Value: 1; Opponent: Berrettini M.; Count: 1" role="graphics-symbol" aria-roledescription="text mark" text-anchor="start" transform="translate(450.33333333333337,360.99999999999994)" font-family="sans-serif" font-size="12px" font-weight="bold" fill="#292929">1</text><text aria-label="Plot_Value: 1; Opponent: Del Potro J.M.; Count: 1" role="graphics-symbol" aria-roledescription="text mark" text-anchor="start" transform="translate(450.33333333333337,402.99999999999994)" font-family="sans-serif" font-size="12px" font-weight="bold" fill="#292929">1</text><text aria-label="Plot_Value: 1; Opponent: Kyrgios N.; Count: 1" role="graphics-symbol" aria-roledescription="text mark" text-anchor="start" transform="translate(450.33333333333337,444.99999999999994)" font-family="sans-serif" font-size="12px" font-weight="bold" fill="#292929">1</text><text aria-label="Plot_Value: 1; Opponent: Ruud C.; Count: 1" role="graphics-symbol" aria-roledescription="text mark" text-anchor="start" transform="translate(450.33333333333337,486.99999999999994)" font-family="sans-serif" font-size="12px" font-weight="bold" fill="#292929">1</text><text aria-label="Plot_Value: 1; Opponent: Thiem D.; Count: 1" role="graphics-symbol" aria-roledescription="text mark" text-anchor="start" transform="translate(450.33333333333337,529)" font-family="sans-serif" font-size="12px" font-weight="bold" fill="#292929">1</text><text aria-label="Plot_Value: 1; Opponent: Tsonga J.W.; Count: 1" role="graphics-symbol" aria-roledescription="text mark" text-anchor="start" transform="translate(450.33333333333337,570.9999999999999)" font-family="sans-serif" font-size="12px" font-weight="bold" fill="#292929">1</text></g><g class="mark-text role-mark layer_3_marks" role="graphics-object" aria-roledescription="text mark container"><text aria-label="Plot_Value: −5; Opponent: Nadal R.; Count: 5" role="graphics-symbol" aria-roledescription="text mark" text-anchor="end" transform="translate(56.33333333333333,24.999999999999968)" font-family="sans-serif" font-size="12px" font-weight="bold" fill="#292929">5</text><text aria-label="Plot_Value: −2; Opponent: Murray A.; Count: 2" role="graphics-symbol" aria-roledescription="text mark" text-anchor="end" transform="translate(246.33333333333331,66.99999999999997)" font-family="sans-serif" font-size="12px" font-weight="bold" fill="#292929">2</text><text aria-label="Plot_Value: −1; Opponent: Federer R.; Count: 1" role="graphics-symbol" aria-roledescription="text mark" text-anchor="end" transform="translate(309.6666666666667,108.99999999999997)" font-family="sans-serif" font-size="12px" font-weight="bold" fill="#292929">1</text><text aria-label="Plot_Value: −1; Opponent: Medvedev D.; Count: 1" role="graphics-symbol" aria-roledescription="text mark" text-anchor="end" transform="translate(309.6666666666667,150.99999999999997)" font-family="sans-serif" font-size="12px" font-weight="bold" fill="#292929">1</text><text aria-label="Plot_Value: −2; Opponent: Alcaraz C.; Count: 2" role="graphics-symbol" aria-roledescription="text mark" text-anchor="end" transform="translate(246.33333333333331,234.99999999999997)" font-family="sans-serif" font-size="12px" font-weight="bold" fill="#292929">2</text><text aria-label="Plot_Value: −2; Opponent: Wawrinka S.; Count: 2" role="graphics-symbol" aria-roledescription="text mark" text-anchor="end" transform="translate(246.33333333333331,276.99999999999994)" font-family="sans-serif" font-size="12px" font-weight="bold" fill="#292929">2</text></g><g class="mark-group role-legend" role="graphics-symbol" aria-roledescription="legend" aria-label="Symbol legend for fill color with 2 values: Djokovic lost, Djokovic won"><g transform="translate(0,-30)"><path class="background" aria-hidden="true" d="M0,0h160v12h-160Z" pointer-events="none"/><g><g class="mark-group role-legend-entry"><g transform="translate(0,0)"><path class="background" aria-hidden="true" d="M0,0h0v0h0Z" pointer-events="none"/><g><g class="mark-group role-scope" role="graphics-object" aria-roledescription="group mark container"><g transform="translate(0,0.011387212474168962)"><path class="background" aria-hidden="true" d="M0,0h73.1279296875v11.977225575051662h-73.1279296875Z" pointer-events="none" opacity="1"/><g><g class="mark-symbol role-legend-symbol" pointer-events="none"><path transform="translate(6.5,6.5)" d="M-5.477,-5.477h10.954v10.954h-10.954Z" fill="#B9BFBB" stroke-width="1.5" opacity="1"/></g><g class="mark-text role-legend-label" pointer-events="none"><text text-anchor="start" transform="translate(17,9.5)" font-family="sans-serif" font-size="10px" fill="#000" opacity="1">Djokovic lost</text></g></g><path class="foreground" aria-hidden="true" d="" pointer-events="none" display="none"/></g><g transform="translate(84,0.011387212474168962)"><path class="background" aria-hidden="true" d="M0,0h75.9111328125v11.977225575051662h-75.9111328125Z" pointer-events="none" opacity="1"/><g><g class="mark-symbol role-legend-symbol" pointer-events="none"><path transform="translate(6.5,6.5)" d="M-5.477,-5.477h10.954v10.954h-10.954Z" fill="#315E52" stroke-width="1.5" opacity="1"/></g><g class="mark-text role-legend-label" pointer-events="none"><text text-anchor="start" transform="translate(17,9.5)" font-family="sans-serif" font-size="10px" fill="#000" opacity="1">Djokovic won</text></g></g><path class="foreground" aria-hidden="true" d="" pointer-events="none" display="none"/></g></g></g><path class="foreground" aria-hidden="true" d="" pointer-events="none" display="none"/></g></g></g><path class="foreground" aria-hidden="true" d="" pointer-events="none" display="none"/></g></g><g class="mark-group role-title"><g transform="translate(-75.349609375,-73)"><path class="background" aria-hidden="true" d="M0,0h0v0h0Z" pointer-events="none"/><g><g class="mark-text role-title-text" role="graphics-symbol" aria-roledescription="title" aria-label="Title text 'The opponents who shaped Djokovic’s Grand Slam finals'" pointer-events="none"><text text-anchor="start" transform="translate(0,16)" font-family="sans-serif" font-size="20px" font-weight="normal" fill="#292929" opacity="1">The opponents who shaped Djokovic’s Grand Slam finals</text></g><g class="mark-text role-title-subtitle" role="graphics-symbol" aria-roledescription="subtitle" aria-label="Subtitle text 'Final losses appear on the left; titles won against each opponent appear on the right.'" pointer-events="none"><text text-anchor="start" transform="translate(0,37)" font-family="sans-serif" font-size="12px" fill="#666666" opacity="1">Final losses appear on the left; titles won against each opponent appear on the right.</text></g></g><path class="foreground" aria-hidden="true" d="" pointer-events="none" display="none"/></g></g></g><path class="foreground" aria-hidden="true" d="" display="none"/></g></g></g><defs><clipPath id="clip1"><path d="M3,0L567,0C568.655745073482,0,570,1.344254926518,570,3L570,19C570,20.655745073482,568.655745073482,22,567,22L3,22C1.344254926518,22,0,20.655745073482,0,19L0,3C0,1.344254926518,1.344254926518,0,3,0Z"/></clipPath><clipPath id="clip2"><path d="M3,0L440.3333333333333,0C441.98907840681534,0,443.3333333333333,1.344254926518,443.3333333333333,3L443.3333333333333,19C443.3333333333333,20.655745073482,441.98907840681534,22,440.3333333333333,22L3,22C1.344254926518,22,0,20.655745073482,0,19L0,3C0,1.344254926518,1.344254926518,0,3,0Z"/></clipPath><clipPath id="clip3"><path d="M3,0L313.6666666666667,0C315.3224117401487,0,316.6666666666667,1.344254926518,316.6666666666667,3L316.6666666666667,19C316.6666666666667,20.655745073482,315.3224117401487,22,313.6666666666667,22L3,22C1.344254926518,22,0,20.655745073482,0,19L0,3C0,1.344254926518,1.344254926518,0,3,0Z"/></clipPath><clipPath id="clip4"><path d="M3,0L186.99999999999994,0C188.65574507348194,0,189.99999999999994,1.344254926518,189.99999999999994,3L189.99999999999994,19C189.99999999999994,20.655745073482,188.65574507348194,22,186.99999999999994,22L3,22C1.344254926518,22,0,20.655745073482,0,19L0,3C0,1.344254926518,1.344254926518,0,3,0Z"/></clipPath><clipPath id="clip5"><path d="M3,0L123.66666666666669,0C125.32241174014868,0,126.66666666666669,1.344254926518,126.66666666666669,3L126.66666666666669,19C126.66666666666669,20.655745073482,125.32241174014868,22,123.66666666666669,22L3,22C1.344254926518,22,0,20.655745073482,0,19L0,3C0,1.344254926518,1.344254926518,0,3,0Z"/></clipPath><clipPath id="clip6"><path d="M3,0L123.66666666666669,0C125.32241174014868,0,126.66666666666669,1.344254926518,126.66666666666669,3L126.66666666666669,19C126.66666666666669,20.655745073482,125.32241174014868,22,123.66666666666669,22L3,22C1.344254926518,22,0,20.655745073482,0,19L0,3C0,1.344254926518,1.344254926518,0,3,0Z"/></clipPath><clipPath id="clip7"><path d="M3,0L123.66666666666663,0C125.32241174014862,0,126.66666666666663,1.344254926518,126.66666666666663,3L126.66666666666663,19C126.66666666666663,20.655745073482,125.32241174014862,22,123.66666666666663,22L3,22C1.344254926518,22,0,20.655745073482,0,19L0,3C0,1.344254926518,1.344254926518,0,3,0Z"/></clipPath><clipPath id="clip8"><path d="M3,0L60.33333333333337,0C61.98907840681537,0,63.33333333333337,1.344254926518,63.33333333333337,3L63.33333333333337,19C63.33333333333337,20.655745073482,61.98907840681537,22,60.33333333333337,22L3,22C1.344254926518,22,0,20.655745073482,0,19L0,3C0,1.344254926518,1.344254926518,0,3,0Z"/></clipPath><clipPath id="clip9"><path d="M3,0L60.33333333333337,0C61.98907840681537,0,63.33333333333337,1.344254926518,63.33333333333337,3L63.33333333333337,19C63.33333333333337,20.655745073482,61.98907840681537,22,60.33333333333337,22L3,22C1.344254926518,22,0,20.655745073482,0,19L0,3C0,1.344254926518,1.344254926518,0,3,0Z"/></clipPath><clipPath id="clip10"><path d="M3,0L60.33333333333337,0C61.98907840681537,0,63.33333333333337,1.344254926518,63.33333333333337,3L63.33333333333337,19C63.33333333333337,20.655745073482,61.98907840681537,22,60.33333333333337,22L3,22C1.344254926518,22,0,20.655745073482,0,19L0,3C0,1.344254926518,1.344254926518,0,3,0Z"/></clipPath><clipPath id="clip11"><path d="M3,0L60.33333333333337,0C61.98907840681537,0,63.33333333333337,1.344254926518,63.33333333333337,3L63.33333333333337,19C63.33333333333337,20.655745073482,61.98907840681537,22,60.33333333333337,22L3,22C1.344254926518,22,0,20.655745073482,0,19L0,3C0,1.344254926518,1.344254926518,0,3,0Z"/></clipPath><clipPath id="clip12"><path d="M3,0L60.33333333333337,0C61.98907840681537,0,63.33333333333337,1.344254926518,63.33333333333337,3L63.33333333333337,19C63.33333333333337,20.655745073482,61.98907840681537,22,60.33333333333337,22L3,22C1.344254926518,22,0,20.655745073482,0,19L0,3C0,1.344254926518,1.344254926518,0,3,0Z"/></clipPath><clipPath id="clip13"><path d="M3,0L60.33333333333337,0C61.98907840681537,0,63.33333333333337,1.344254926518,63.33333333333337,3L63.33333333333337,19C63.33333333333337,20.655745073482,61.98907840681537,22,60.33333333333337,22L3,22C1.344254926518,22,0,20.655745073482,0,19L0,3C0,1.344254926518,1.344254926518,0,3,0Z"/></clipPath><clipPath id="clip14"><path d="M3,0L60.33333333333337,0C61.98907840681537,0,63.33333333333337,1.344254926518,63.33333333333337,3L63.33333333333337,19C63.33333333333337,20.655745073482,61.98907840681537,22,60.33333333333337,22L3,22C1.344254926518,22,0,20.655745073482,0,19L0,3C0,1.344254926518,1.344254926518,0,3,0Z"/></clipPath></defs></svg>